<?xml version="1.0" standalone="no"?>
<!DOCTYPE svg PUBLIC "-//W3C//DTD SVG 20010904//EN"
 "http://www.w3.org/TR/2001/REC-SVG-20010904/DTD/svg10.dtd">
<svg version="1.0" xmlns="http://www.w3.org/2000/svg"
 width="300.000000pt" height="300.000000pt" viewBox="0 0 300.000000 300.000000"
 preserveAspectRatio="xMidYMid meet">
<metadata>
Created by potrace 1.10, written by Peter Selinger 2001-2011
</metadata>
<g transform="translate(0.000000,300.000000) scale(0.100000,-0.100000)"
fill="#000000" stroke="none">
<path d="M2480 2832 c-36 -45 -60 -82 -60 -96 0 -8 -4 -18 -10 -21 -18 -11
-11 -20 25 -31 22 -7 38 -8 41 -2 4 6 11 5 17 -1 17 -17 27 -13 27 9 0 17 -7
20 -45 20 -36 0 -45 3 -45 18 0 20 34 74 46 73 5 -1 9 5 9 12 1 6 7 11 15 9 7
-2 16 2 20 8 4 6 17 -1 32 -19 15 -16 23 -33 20 -37 -4 -4 -2 -4 4 -1 7 4 14
0 18 -8 4 -10 -1 -15 -15 -15 -27 0 -19 -24 10 -28 15 -3 20 -9 17 -20 -8 -24
8 -44 27 -36 17 6 24 24 10 24 -9 0 -33 48 -33 66 0 19 -76 94 -97 94 -10 0
-25 -8 -33 -18z"/>
<path d="M971 2775 c-34 -39 -41 -42 -41 -20 0 20 -16 19 -24 -1 -13 -33 -142
-191 -187 -229 l-49 -40 25 -11 c14 -5 23 -13 20 -15 -3 -3 4 -14 15 -24 17
-15 23 -16 33 -5 8 9 9 11 0 6 -6 -3 -14 -2 -18 4 -3 5 2 10 12 10 10 0 24 12
30 27 l13 26 -23 -21 c-29 -27 -44 -28 -52 -1 -5 15 5 32 42 72 26 28 52 50
58 49 5 -2 7 0 3 3 -8 9 39 80 75 113 16 15 27 20 32 13 8 -15 25 -14 25 1 0
6 11 26 26 45 33 43 24 42 -15 -2z"/>
<path d="M970 2710 c0 -15 74 -70 95 -70 15 1 11 5 -12 15 -18 8 -44 25 -58
39 -14 14 -25 21 -25 16z"/>
<path d="M2246 2656 c-24 -25 -56 -48 -72 -52 -36 -9 -112 -48 -139 -71 -35
-30 -36 -48 -4 -78 36 -33 47 -28 19 8 -11 14 -20 32 -20 40 0 14 70 67 88 67
5 0 30 11 58 25 l49 24 32 -35 c39 -44 57 -115 42 -168 -6 -22 -14 -34 -21
-30 -6 4 -8 3 -5 -3 9 -14 -29 -99 -46 -106 -17 -7 -28 1 -50 35 -10 16 -23
27 -29 25 -6 -1 -15 9 -19 23 -7 20 -8 17 -4 -13 2 -20 14 -51 27 -67 51 -65
117 -20 149 101 24 88 15 142 -32 201 -16 20 -29 41 -29 46 0 4 13 21 29 36
24 23 35 27 67 22 30 -4 33 -4 14 3 -46 16 -60 11 -104 -33z"/>
<path d="M976 2658 c67 -71 93 -120 98 -180 5 -58 4 -58 -27 -67 l-32 -9 37 1
38 2 0 45 c0 25 -4 60 -9 78 -11 36 -106 162 -124 162 -6 0 3 -15 19 -32z"/>
<path d="M2631 2645 c4 -26 -2 -33 -23 -28 -13 3 -21 3 -18 0 3 -3 14 -7 25
-9 11 -1 23 -7 26 -11 4 -5 14 -7 24 -5 16 3 15 6 -8 33 -15 17 -27 26 -26 20z"/>
<path d="M2570 2564 c30 -20 68 -48 84 -63 20 -18 30 -22 33 -13 4 10 8 10 19
1 8 -6 14 -8 14 -4 0 13 -31 34 -114 75 -97 50 -106 50 -36 4z"/>
<path d="M2807 2552 c-10 -10 -17 -24 -17 -30 0 -7 -4 -12 -10 -12 -5 0 -10 4
-10 10 0 5 -7 7 -16 3 -14 -5 -14 -8 -1 -20 13 -13 18 -13 41 2 14 10 23 22
20 27 -4 6 0 14 7 19 7 4 11 10 8 14 -3 3 -13 -3 -22 -13z"/>
<path d="M1666 2551 c-9 -14 44 -43 89 -49 37 -4 43 -2 48 19 8 30 1 37 -8 9
-6 -20 -12 -21 -49 -16 -22 4 -48 15 -58 26 -9 11 -19 16 -22 11z"/>
<path d="M2388 2495 c42 -57 69 -113 102 -216 36 -109 39 -175 9 -213 -14 -18
-16 -26 -7 -26 8 0 22 -15 33 -32 10 -18 25 -39 32 -46 7 -7 13 -23 13 -35 0
-26 42 -127 53 -127 12 0 8 19 -8 44 -15 22 -14 24 6 29 22 6 69 -18 69 -35 0
-5 5 -6 12 -2 7 4 8 3 4 -4 -4 -7 -2 -20 3 -29 8 -14 10 -1 11 50 0 37 -4 67
-9 67 -10 0 -9 19 2 37 6 9 3 11 -8 7 -9 -4 -14 -13 -11 -20 3 -8 0 -11 -10
-7 -7 3 -14 1 -14 -5 0 -5 6 -12 14 -15 7 -3 15 -19 18 -36 l4 -30 -27 16
c-30 18 -30 36 -1 26 13 -5 15 -3 5 7 -10 11 -16 10 -36 -3 -23 -15 -26 -15
-41 2 -9 10 -16 27 -16 38 0 12 -3 23 -8 25 -4 2 -22 22 -41 46 -32 41 -33 43
-16 68 14 21 19 23 28 12 7 -8 21 -21 32 -28 19 -14 19 -14 5 5 -8 11 -23 27
-33 36 -15 12 -20 31 -22 79 -4 90 -71 242 -137 313 l-40 42 30 -40z"/>
<path d="M2740 2449 c0 -133 -30 -229 -70 -229 -20 0 -64 -40 -54 -49 3 -3 13
3 22 14 10 11 23 20 30 20 7 0 35 -25 61 -55 27 -30 52 -52 57 -47 4 4 -3 18
-15 31 -21 22 -24 36 -35 135 l-4 43 31 -28 c31 -28 31 -28 8 -2 -19 22 -23
34 -18 62 3 20 2 38 -3 41 -13 8 0 37 15 31 16 -6 7 40 -11 55 -11 9 -13 5
-14 -22z"/>
<path d="M790 2432 c0 -5 -12 -21 -26 -36 -15 -14 -24 -26 -20 -26 3 0 -7 -19
-24 -42 -30 -42 -38 -68 -20 -68 6 0 10 -27 10 -61 0 -51 4 -64 24 -82 l23
-21 -28 -62 c-15 -34 -33 -84 -40 -110 -6 -27 -16 -53 -20 -58 -5 -6 -9 -18
-9 -28 0 -9 -14 -41 -31 -70 -35 -58 -66 -126 -80 -172 -13 -45 6 -19 32 44
33 77 85 161 94 152 5 -4 5 -1 0 7 -4 7 -3 16 2 20 5 3 19 46 31 95 30 117 59
184 85 192 26 8 52 33 43 41 -3 4 -12 -1 -19 -9 -11 -15 -17 -13 -55 17 l-43
34 36 7 c20 3 50 4 68 1 l32 -6 -34 15 c-19 9 -49 13 -66 11 -32 -4 -33 -3
-39 36 -6 33 -2 47 21 81 15 23 38 53 51 67 15 17 20 29 13 33 -6 4 -11 3 -11
-2z"/>
<path d="M2103 2434 c-7 -3 -13 -13 -13 -22 0 -12 3 -13 8 -5 9 15 42 -18 42
-42 0 -8 4 -15 9 -15 21 0 4 54 -20 63 -16 6 -19 11 -11 14 8 3 19 0 25 -6 14
-14 134 -15 142 -1 4 6 -16 10 -53 10 -33 0 -72 2 -88 5 -16 2 -35 2 -41 -1z"/>
<path d="M2050 2413 c0 -5 -25 -34 -55 -65 -30 -31 -55 -63 -55 -71 0 -8 9
-22 20 -32 15 -14 17 -21 9 -32 -23 -26 -2 -12 27 19 16 18 22 27 13 20 -14
-10 -20 -10 -33 3 -18 19 -20 31 -7 40 18 11 101 125 91 125 -6 0 -10 -3 -10
-7z"/>
<path d="M922 2379 c11 -32 5 -119 -12 -163 -6 -17 -17 -26 -32 -26 -16 0 -19
-3 -11 -11 6 -6 9 -17 7 -23 -2 -6 4 -12 15 -13 27 -2 56 89 54 171 0 47 2 55
11 40 13 -24 56 -123 63 -149 4 -11 23 -46 44 -77 22 -31 48 -81 59 -111 11
-30 29 -62 40 -72 33 -30 24 -57 -35 -116 -30 -30 -60 -66 -66 -81 -10 -24
-14 -26 -35 -16 -13 6 -24 15 -24 19 0 4 26 31 58 60 46 42 51 49 24 35 -18
-9 -51 -34 -72 -55 l-39 -38 29 -27 c17 -14 30 -22 30 -18 0 4 18 9 41 11 64
3 135 55 170 124 19 37 19 37 -1 77 -26 50 -32 51 -15 3 8 -23 10 -42 4 -47
-5 -6 -9 -17 -9 -26 0 -34 -86 -110 -124 -110 -29 0 -17 25 34 73 66 63 71 85
31 157 -17 32 -31 67 -31 79 0 12 -11 37 -24 54 -14 18 -45 75 -71 127 -26 52
-59 110 -72 129 -21 27 -23 35 -12 42 10 6 6 9 -13 9 -26 0 -26 -1 -16 -31z"/>
<path d="M2784 2376 c0 -13 5 -22 10 -18 5 3 7 -5 4 -16 -4 -12 -2 -20 3 -16
9 5 13 -17 9 -46 -1 -11 1 -12 10 -4 8 8 5 26 -10 67 -24 63 -29 69 -26 33z"/>
<path d="M1049 2331 c10 -27 39 -78 66 -115 41 -58 45 -69 34 -84 -12 -15 -12
-16 2 -5 13 11 18 9 29 -15 7 -15 13 -31 11 -35 -1 -5 2 -6 7 -3 5 3 21 -18
35 -47 14 -29 26 -45 27 -37 0 8 -22 51 -50 95 -60 98 -108 176 -137 223 -11
19 -19 41 -17 47 3 7 -2 15 -10 18 -13 5 -13 -1 3 -42z"/>
<path d="M2640 2368 c0 -5 7 -22 15 -37 8 -16 12 -31 9 -34 -4 -3 1 -16 10
-29 18 -26 19 -19 6 37 -8 35 -7 42 11 56 19 14 19 15 -15 15 -20 0 -36 -4
-36 -8z"/>
<path d="M2566 2253 c1 -16 3 -39 4 -53 l2 -25 8 26 c8 28 2 79 -9 79 -4 0 -6
-12 -5 -27z"/>
<path d="M2109 2255 c5 -11 26 -38 46 -60 21 -22 32 -32 25 -22 -7 9 -9 17 -4
17 16 0 74 -24 74 -31 0 -4 15 -10 33 -14 40 -8 87 -28 87 -36 0 -3 11 -4 25
-1 18 3 25 0 25 -11 0 -8 -5 -17 -12 -19 -8 -3 -9 -6 -1 -11 5 -3 15 4 21 17
10 22 7 24 -71 54 -45 16 -93 33 -107 38 -24 7 -24 7 -5 16 19 8 19 8 -2 4
-25 -4 -108 35 -130 61 -13 17 -13 17 -4 -2z"/>
<path d="M2886 2251 c19 -12 37 -34 43 -53 6 -19 25 -44 41 -57 40 -29 38 -18
-5 32 -19 22 -35 46 -35 53 0 16 -39 44 -60 44 -8 0 -1 -9 16 -19z"/>
<path d="M2837 2174 c3 -27 12 -59 20 -72 7 -12 11 -28 7 -34 -4 -6 -3 -8 4
-4 6 3 21 -8 34 -26 l23 -33 -25 17 c-33 23 -88 53 -75 41 38 -37 175 -121
175 -108 0 3 -31 35 -69 73 -62 61 -70 73 -76 117 -10 68 -24 91 -18 29z"/>
<path d="M2890 2201 c0 -7 10 -27 22 -44 28 -42 88 -109 88 -100 -2 19 -37 78
-46 76 -6 -1 -22 17 -37 40 -15 22 -27 35 -27 28z"/>
<path d="M985 2168 c-2 -7 -8 -26 -14 -43 l-11 -30 6 35 c4 28 3 32 -6 17 -6
-9 -10 -25 -9 -35 1 -9 -1 -24 -4 -32 -11 -29 -29 -121 -25 -126 3 -2 10 15
17 38 24 80 54 163 64 176 6 8 6 12 -2 12 -6 0 -13 -6 -16 -12z"/>
<path d="M1917 2172 c-19 -30 -31 -152 -18 -182 l12 -25 -5 25 c-4 16 3 37 18
60 35 51 41 92 17 114 -10 9 -21 13 -24 8z"/>
<path d="M2042 2158 c-7 -7 -12 -19 -12 -27 0 -8 -6 -22 -13 -30 -15 -17 -47
-130 -46 -158 0 -10 11 10 25 45 13 35 22 67 19 72 -3 4 2 13 9 19 10 8 16 9
21 1 13 -21 127 -71 197 -87 39 -9 78 -23 87 -32 9 -9 24 -15 34 -13 24 5 21
22 -3 22 -12 0 -34 7 -50 15 -16 9 -49 18 -72 21 -24 3 -77 23 -118 43 -64 31
-75 40 -78 64 -2 16 2 35 9 43 14 17 8 19 -9 2z"/>
<path d="M2570 2140 c0 -8 9 -28 20 -45 54 -82 64 -101 62 -122 -2 -13 2 -23
8 -23 6 0 9 4 6 9 -4 5 -1 11 5 13 15 5 -13 71 -39 89 -10 8 -29 32 -41 54
-11 22 -21 33 -21 25z"/>
<path d="M888 2103 c-25 -31 -50 -75 -45 -80 3 -2 11 6 17 19 7 12 22 33 33
45 11 13 18 25 15 28 -2 3 -11 -3 -20 -12z"/>
<path d="M2792 2070 c3 -8 13 -37 22 -65 9 -27 22 -57 29 -66 12 -15 47 -33
47 -24 0 6 -90 159 -98 165 -3 3 -3 -2 0 -10z"/>
<path d="M2445 2013 c-23 -110 -54 -170 -94 -179 -48 -11 -46 -11 16 -10 34 0
59 4 57 8 -3 5 -11 8 -19 8 -9 0 -5 15 13 49 15 27 29 48 33 45 3 -2 4 8 1 21
-2 13 1 38 6 55 7 17 7 30 2 30 -5 0 -12 -12 -15 -27z"/>
<path d="M2247 1958 c-37 -61 -57 -101 -57 -114 0 -8 -7 -17 -15 -20 -8 -4
-15 -10 -15 -15 0 -20 38 16 49 47 7 19 18 39 25 46 13 13 38 78 31 78 -3 0
-11 -10 -18 -22z"/>
<path d="M1939 1921 c-6 -22 -17 -39 -23 -38 -6 1 -14 -20 -19 -48 -5 -27 -20
-95 -34 -150 -13 -55 -26 -113 -29 -130 -11 -91 -13 -118 -8 -105 4 8 18 29
31 47 32 42 63 129 62 173 0 32 -2 30 -19 -25 -10 -33 -25 -78 -33 -100 -23
-60 -22 -6 1 70 10 33 17 66 14 74 -3 9 0 11 8 6 10 -6 12 -2 8 13 -4 12 -2
22 4 22 5 0 6 5 2 12 -10 15 -6 83 6 112 8 19 9 19 9 2 1 -30 11 -13 26 45 17
63 12 79 -6 20z"/>
<path d="M2060 1928 c0 -8 11 -25 25 -38 18 -17 25 -20 25 -8 0 8 -11 25 -25
38 -18 17 -25 20 -25 8z"/>
<path d="M2926 1925 c-28 -12 -28 -13 -10 -23 16 -8 21 -6 31 14 6 13 10 24
10 23 -1 0 -15 -6 -31 -14z"/>
<path d="M2837 1853 c-3 -5 3 -38 12 -75 11 -41 14 -71 8 -77 -5 -5 -5 -16 0
-26 8 -14 11 -12 18 16 7 34 7 34 16 9 l8 -25 -2 25 c-1 14 -8 24 -15 23 -7
-2 -12 8 -12 26 0 16 -7 44 -15 64 -8 19 -11 37 -8 41 4 3 4 6 0 6 -3 0 -8 -3
-10 -7z"/>
<path d="M819 1820 c-2 -14 -2 -41 1 -60 6 -35 6 -35 12 -7 3 15 2 42 -1 60
-7 30 -8 31 -12 7z"/>
<path d="M2198 1766 c-21 -43 -21 -46 -8 -46 13 0 32 48 28 68 -2 8 -11 -1
-20 -22z"/>
<path d="M661 1755 c-1 -16 -10 -47 -20 -69 -10 -21 -16 -47 -13 -58 8 -31 43
80 39 122 -3 33 -4 33 -6 5z"/>
<path d="M844 1746 c4 -15 10 -42 13 -60 3 -17 17 -47 30 -66 14 -21 23 -49
23 -73 0 -21 4 -36 9 -33 5 3 20 -10 35 -28 14 -19 31 -40 38 -48 7 -7 13 -24
13 -38 0 -34 -27 -90 -43 -90 -9 0 -10 5 -3 19 9 15 7 20 -9 24 -23 6 -24 1
-9 -42 11 -32 24 -40 32 -18 2 6 4 0 4 -14 1 -42 23 -98 41 -103 9 -2 40 -7
68 -11 42 -5 54 -11 63 -31 15 -35 16 -34 -34 -34 -25 0 -45 5 -45 11 0 5 5 7
11 4 6 -4 5 2 -2 13 -7 12 -15 19 -17 17 -7 -6 30 -178 40 -192 5 -6 11 -35
14 -64 2 -28 10 -57 17 -63 27 -21 55 -82 67 -141 16 -75 19 -176 6 -193 -6
-8 -5 -17 1 -23 8 -8 4 -22 -13 -47 -13 -19 -22 -43 -19 -52 3 -9 -3 -24 -14
-34 -19 -18 -21 -36 -6 -88 11 -41 25 -34 25 12 0 22 -5 40 -11 40 -5 0 -7 5
-4 10 11 18 42 -8 48 -40 6 -26 11 -30 38 -30 19 0 29 4 27 12 -2 6 4 20 14
30 16 16 24 45 19 72 -1 4 3 16 10 25 6 9 -3 0 -20 -19 -34 -37 -39 -53 -16
-44 8 4 15 1 15 -5 0 -10 -10 -14 -27 -9 -5 1 -11 -11 -14 -28 -5 -26 -6 -25
-14 19 -6 38 -4 51 9 66 9 10 16 26 15 37 0 13 -5 9 -15 -13 -8 -18 -19 -33
-25 -33 -7 0 -8 -11 -4 -31 5 -22 4 -29 -4 -25 -6 4 -11 16 -11 27 0 10 -3 18
-7 18 -19 -3 -21 3 -12 31 6 17 16 27 22 23 5 -3 7 -2 4 4 -3 5 0 20 7 34 7
13 11 30 8 37 -2 6 1 12 7 12 10 0 16 -21 12 -42 0 -5 4 -8 10 -8 6 0 8 9 3
23 -16 52 -16 53 -1 35 8 -10 18 -18 22 -18 4 0 2 7 -5 15 -15 18 -14 20 23
29 20 5 27 3 27 -8 0 -8 -8 -17 -17 -19 -11 -3 -7 -5 10 -6 32 -1 57 -21 57
-45 0 -16 -15 -22 -23 -8 -2 4 -2 0 1 -8 10 -32 10 -136 0 -148 -13 -15 -4
-27 11 -17 6 3 12 27 12 53 1 29 4 37 6 19 2 -15 9 -27 15 -27 5 0 8 6 5 13
-30 81 -31 86 -18 114 12 26 11 30 -20 55 -31 26 -32 28 -16 52 13 19 15 31 7
52 -6 15 -9 27 -8 28 30 12 78 41 78 47 0 5 13 23 29 41 16 18 29 36 30 41 0
4 2 10 2 15 3 20 6 28 13 45 16 34 -150 166 -188 151 -26 -10 -18 -19 16 -21
38 -3 83 -33 83 -56 0 -20 34 -57 54 -58 9 0 11 -3 4 -5 -7 -3 -9 -12 -6 -20
3 -8 0 -14 -7 -14 -6 0 -9 -4 -5 -10 3 -5 13 -7 23 -4 12 4 10 0 -6 -13 -12
-10 -30 -34 -40 -52 -23 -47 -64 -75 -95 -67 -27 6 -131 96 -148 127 -8 16 -3
22 31 39 22 11 38 25 35 29 -2 5 3 15 12 22 15 12 16 12 10 -6 -7 -19 -6 -19
7 -2 8 11 12 25 9 33 -3 8 -2 14 3 12 5 -2 10 0 12 5 5 15 2 27 -8 27 -5 0
-10 -6 -10 -14 0 -16 -40 -69 -48 -62 -2 3 -18 -6 -34 -19 -16 -14 -33 -25
-37 -25 -14 0 -32 44 -30 75 0 17 -7 50 -16 74 -15 41 -15 45 2 63 17 19 17
19 -8 13 -23 -6 -25 -3 -26 29 -1 32 1 34 22 26 13 -5 26 -6 29 -3 3 4 6 0 6
-8 0 -21 34 -47 51 -39 8 4 28 12 46 18 40 12 48 -3 33 -59 -13 -46 -67 -88
-129 -98 -3 -1 0 -6 6 -12 18 -18 100 35 120 77 12 24 19 31 26 22 9 -14 0 89
-10 105 -3 4 -12 2 -21 -7 -10 -8 -37 -16 -61 -18 l-44 -3 1 50 c0 36 3 49 13
47 7 -2 27 -1 45 2 29 6 32 11 38 53 3 25 4 48 2 50 -2 3 -14 -1 -27 -7 -20
-11 -20 -13 -6 -22 10 -5 17 -16 17 -25 0 -32 -247 2 -251 35 -6 53 -7 52 30
53 31 2 32 3 8 6 -27 4 -28 6 -24 61 3 42 7 56 17 54 8 -2 28 -5 44 -8 29 -4
29 -4 -6 10 -65 26 -148 109 -148 149 0 16 -9 41 -20 57 -11 15 -25 52 -31 81
-6 30 -16 59 -21 64 -7 7 -8 1 -4 -19z m410 -1077 c6 -8 28 -23 49 -33 30 -15
37 -25 37 -48 0 -15 5 -28 12 -28 29 0 -22 -32 -58 -36 -57 -7 -69 5 -57 55 6
22 7 38 2 35 -5 -3 -10 2 -10 10 -3 29 -4 34 -11 42 -13 13 -9 22 8 20 9 -1
22 -9 28 -17z"/>
<path d="M909 1751 c6 -10 9 -20 8 -22 -1 -2 0 -3 2 -2 2 1 16 -17 32 -40 46
-69 171 -184 210 -192 45 -10 99 -36 93 -46 -6 -10 46 -50 57 -44 8 6 -66 79
-82 81 -5 1 -14 2 -20 3 -5 0 -7 5 -4 11 3 6 -1 7 -9 4 -18 -7 -89 34 -81 46
3 4 17 11 32 15 14 3 46 20 70 38 34 24 40 33 29 39 -17 9 -93 14 -102 6 -3
-3 14 -6 37 -6 22 -1 43 -3 45 -5 6 -6 -85 -63 -114 -72 -19 -6 -33 4 -85 58
-34 36 -73 84 -87 106 -25 40 -50 59 -31 22z"/>
<path d="M2630 1765 c0 -3 6 -18 14 -33 7 -15 16 -44 20 -66 5 -24 11 -35 17
-29 15 15 -11 112 -33 124 -10 5 -18 7 -18 4z"/>
<path d="M2976 1705 c-5 -39 -17 -86 -29 -107 l-20 -37 34 -68 c31 -63 34 -66
37 -38 3 19 -2 33 -13 42 -12 8 -16 21 -13 37 3 14 1 27 -4 28 -5 2 -2 31 6
66 8 34 11 62 8 62 -4 0 -1 4 6 9 10 6 11 17 4 42 -8 32 -9 30 -16 -36z"/>
<path d="M1136 1719 c-5 -11 -15 -15 -27 -12 -10 3 -19 0 -19 -6 0 -13 29 -14
49 -2 7 5 11 15 8 22 -4 11 -6 10 -11 -2z"/>
<path d="M2510 1681 c4 -22 3 -46 -2 -55 -6 -10 -5 -16 2 -16 5 0 10 6 10 13
1 6 17 24 37 40 20 15 32 27 26 27 -6 0 -22 -9 -37 -21 l-26 -20 0 30 c0 16
-4 32 -9 35 -4 3 -5 -12 -1 -33z"/>
<path d="M2871 1639 c-22 -36 -29 -105 -10 -94 6 4 9 19 7 34 -1 15 6 40 16
55 9 15 15 30 12 33 -3 3 -14 -10 -25 -28z"/>
<path d="M2160 1640 c-6 -11 -8 -26 -4 -32 4 -7 3 -8 -4 -4 -7 4 -12 3 -12 -3
0 -12 -39 -35 -47 -27 -3 3 2 17 12 32 13 21 14 29 4 38 -9 8 -10 8 -5 -1 4
-7 3 -13 -3 -13 -5 0 -13 -10 -17 -22 -3 -12 -28 -45 -54 -72 -41 -45 -70 -85
-70 -99 0 -14 82 39 116 74 24 26 31 37 18 30 -12 -6 -33 -24 -47 -41 -14 -16
-31 -30 -37 -30 -17 0 -10 12 32 58 28 31 42 39 59 35 15 -4 26 0 35 12 9 13
14 14 14 5 0 -25 13 -1 20 40 8 45 6 50 -10 20z"/>
<path d="M806 1548 c-3 -35 -8 -108 -11 -163 -4 -55 -9 -109 -12 -120 -5 -18
-3 -18 10 -5 11 11 16 54 21 183 6 168 2 221 -8 105z"/>
<path d="M847 1603 c-13 -21 13 -115 45 -164 17 -27 33 -49 34 -49 5 0 -14 57
-30 88 -9 17 -22 55 -30 83 -7 29 -16 47 -19 42z"/>
<path d="M2671 1553 c-8 -20 -9 -48 -2 -98 l10 -70 -3 69 c-2 39 0 81 5 94 13
35 4 39 -10 5z"/>
<path d="M500 1545 c0 -29 -36 -124 -56 -146 -17 -19 -5 -37 41 -65 l30 -18
-21 25 c-35 40 -36 47 -14 91 11 23 20 49 20 57 0 13 2 13 9 3 6 -10 10 -9 14
7 3 12 1 21 -3 21 -10 0 -8 20 3 38 5 7 3 12 -7 12 -10 0 -16 -9 -16 -25z"/>
<path d="M2229 1532 c10 -19 10 -26 -1 -40 -11 -13 -11 -14 1 -7 11 6 13 2 9
-18 -3 -15 -1 -24 3 -21 16 9 10 81 -8 95 -15 13 -15 12 -4 -9z"/>
<path d="M2179 1508 c-9 -18 -23 -55 -31 -81 -23 -69 4 -42 32 33 24 65 24 99
-1 48z"/>
<path d="M2580 1525 c-10 -12 -10 -15 1 -15 10 0 10 -3 1 -12 -14 -14 -16 -38
-4 -38 12 0 32 69 22 75 -4 3 -13 -2 -20 -10z"/>
<path d="M570 1513 c0 -10 -3 -28 -6 -40 -4 -13 -2 -23 4 -23 5 0 14 18 20 40
8 32 7 40 -4 40 -8 0 -14 -8 -14 -17z"/>
<path d="M2843 1484 c-10 -10 -10 -15 1 -21 8 -4 16 -17 19 -28 3 -14 5 -11 6
10 1 40 -10 57 -26 39z"/>
<path d="M1128 1442 c-9 -11 -10 -14 0 -8 6 4 12 2 12 -3 0 -6 7 -11 15 -11 8
0 15 -4 15 -10 0 -5 9 -10 19 -10 36 0 51 -12 51 -40 0 -31 -24 -56 -60 -63
-19 -3 -17 -5 11 -6 43 -1 64 19 73 72 6 32 4 37 -12 37 -10 0 -39 13 -64 29
-42 27 -48 28 -60 13z"/>
<path d="M2540 1431 c-7 -19 -17 -28 -26 -24 -9 3 -14 -2 -14 -15 0 -24 25
-48 35 -32 3 5 -1 13 -9 16 -9 3 -16 10 -16 15 0 4 6 6 14 3 13 -5 44 51 34
62 -3 2 -11 -9 -18 -25z"/>
<path d="M2693 1395 c-5 -15 -2 -44 13 -127 4 -25 3 -38 -4 -38 -7 0 -9 7 -5
17 6 15 5 16 -9 3 -9 -8 -13 -17 -9 -20 3 -3 8 -14 9 -25 2 -11 8 -27 13 -35
6 -10 7 -3 3 20 -4 29 -3 32 6 17 6 -10 10 -28 9 -40 -1 -12 1 -35 4 -52 4
-16 9 -64 12 -105 5 -95 15 -183 20 -188 3 -4 -2 165 -6 178 -1 3 -1 9 0 14 3
12 -25 218 -40 300 -7 42 -7 62 0 69 14 14 14 27 1 27 -6 0 -13 -7 -17 -15z"/>
<path d="M562 1353 c-1 -30 -7 -53 -13 -53 -5 0 -7 -5 -3 -11 14 -23 25 10 21
62 l-3 54 -2 -52z"/>
<path d="M2887 1295 c3 -44 9 -84 13 -90 4 -5 10 -19 14 -30 3 -11 3 -6 0 10
-3 17 -11 66 -19 110 l-13 80 5 -80z"/>
<path d="M2107 1354 c-3 -3 -3 -12 0 -20 4 -10 16 -13 43 -9 28 3 40 1 44 -10
3 -8 13 -15 22 -15 14 0 15 2 3 17 -13 15 -10 16 31 10 25 -3 55 -8 68 -11 12
-3 22 -1 22 3 0 11 -60 22 -132 25 -32 1 -61 5 -64 9 -9 9 -29 9 -37 1z"/>
<path d="M2455 1325 c17 -8 24 -14 18 -15 -7 0 -13 -9 -13 -20 0 -13 -12 -26
-35 -37 -19 -9 -32 -20 -29 -25 3 -5 12 -4 19 2 8 6 16 7 19 2 8 -13 -4 -22
-29 -22 -15 0 -31 -13 -49 -40 -29 -44 -58 -66 -114 -86 -20 -7 -30 -13 -21
-14 31 0 84 29 134 74 55 51 60 53 69 30 3 -8 2 -13 -3 -10 -11 7 -33 -52 -25
-65 3 -5 0 -9 -5 -9 -6 0 -11 -4 -11 -10 0 -5 -9 -19 -20 -30 -12 -12 -18 -24
-16 -29 8 -12 -31 -44 -55 -46 -11 -1 -24 6 -30 17 -5 10 -24 25 -42 34 -34
18 -107 72 -119 89 -4 5 -10 6 -14 2 -4 -4 -5 -8 -3 -10 55 -38 78 -60 73 -69
-4 -6 -3 -9 2 -5 5 3 18 -2 29 -10 19 -15 19 -15 -5 -9 -14 4 0 -5 30 -19 30
-14 57 -30 58 -35 10 -29 74 5 105 55 24 38 65 142 70 175 1 8 8 19 14 23 7 4
18 18 24 30 10 20 9 20 -9 -2 -12 -15 -22 -20 -26 -12 -4 6 8 24 27 41 19 16
37 39 40 50 5 18 0 20 -41 19 l-47 -1 30 -13z"/>
<path d="M457 1298 c-8 -12 -18 -35 -21 -51 -4 -15 -15 -36 -26 -47 -11 -11
-20 -27 -20 -35 0 -8 -4 -15 -9 -15 -18 0 4 -50 44 -100 l40 -51 11 27 c9 22
7 29 -15 52 -14 15 -28 23 -30 18 -2 -4 3 -12 10 -17 7 -4 10 -11 6 -15 -4 -4
-8 -5 -10 -3 -1 2 -12 19 -25 37 -23 32 -23 72 -1 72 6 0 8 4 5 9 -4 5 -3 11
2 13 11 4 65 118 59 124 -3 3 -12 -5 -20 -18z"/>
<path d="M2095 1301 c-3 -5 -18 -12 -34 -16 -25 -5 -31 -13 -39 -52 -7 -33 -7
-51 1 -65 10 -16 8 -22 -13 -38 -14 -11 -31 -20 -37 -20 -24 0 -13 -15 25 -31
20 -9 64 -29 97 -43 33 -15 51 -20 41 -11 -14 11 -16 15 -5 15 12 0 12 2 -1
10 -8 5 -19 10 -25 10 -5 0 -3 -5 5 -10 13 -9 13 -10 -1 -10 -8 0 -37 14 -62
31 l-47 31 27 21 c15 12 34 21 43 19 8 -1 3 8 -12 21 -20 16 -28 32 -28 55 0
26 7 36 40 57 22 14 40 27 40 30 0 8 -8 6 -15 -4z"/>
<path d="M1067 1258 c-6 -4 17 -7 53 -7 66 1 65 5 -3 11 -20 2 -43 0 -50 -4z"/>
<path d="M744 1231 c-10 -11 -22 -17 -28 -14 -6 4 -5 -1 3 -11 10 -12 11 -20
3 -28 -6 -6 -8 -17 -5 -26 4 -10 14 2 30 38 25 58 24 73 -3 41z"/>
<path d="M2782 1147 c-11 -69 -13 -147 -4 -147 5 0 7 18 5 44 -3 25 -1 58 5
75 6 17 7 33 3 35 -4 3 -8 0 -9 -7z"/>
<path d="M683 1123 c17 -5 24 -38 9 -47 -8 -5 -12 -37 -15 -106 -1 -14 -5 -28
-10 -31 -4 -3 -1 -12 8 -19 13 -11 15 -8 16 21 2 52 6 71 23 118 23 63 21 71
-16 70 -18 -1 -25 -3 -15 -6z"/>
<path d="M2850 1115 c1 -11 7 -33 14 -50 l13 -30 0 30 c0 17 -6 39 -13 50 -14
19 -14 19 -14 0z"/>
<path d="M1908 1065 c-40 -27 -53 -31 -42 -13 5 7 3 8 -5 3 -9 -5 -10 -10 -2
-18 15 -15 14 -27 -1 -23 -7 1 -10 1 -5 -1 12 -7 8 -23 -5 -19 -7 1 -10 1 -6
-1 3 -2 0 -16 -8 -31 -17 -33 -18 -64 -2 -80 16 -16 33 -16 21 1 -20 24 -21
57 -3 79 9 13 20 33 24 45 7 22 76 81 76 65 0 -5 -10 -21 -21 -36 -12 -15 -19
-29 -16 -32 2 -3 15 11 27 31 30 48 15 62 -32 30z"/>
<path d="M500 1005 c0 -4 7 -20 16 -36 11 -23 14 -49 11 -100 -3 -38 -2 -67 3
-64 4 3 10 -2 14 -10 7 -19 56 -19 82 0 17 13 15 13 -18 3 -53 -16 -63 -4 -66
84 -3 70 -18 128 -34 128 -5 0 -8 -2 -8 -5z"/>
<path d="M1975 935 c28 -13 55 -24 60 -24 20 -1 -51 36 -80 42 -21 4 -16 -1
20 -18z"/>
<path d="M2204 892 c0 -35 3 -40 14 -28 12 11 12 18 -1 42 l-15 28 2 -42z"/>
<path d="M666 850 c-4 -31 -15 -59 -27 -71 -21 -21 -21 -21 -1 -15 18 6 20 3
17 -21 -2 -15 -4 -31 -4 -36 -1 -9 -84 -3 -100 8 -6 3 -11 15 -11 25 0 41 -18
27 -24 -19 -8 -57 -1 -78 26 -87 30 -9 36 5 10 25 -30 22 -19 31 40 31 58 0
65 -20 16 -50 -34 -20 -22 -28 13 -9 33 17 45 61 55 202 6 78 0 90 -10 17z"/>
<path d="M2029 867 c-7 -17 -18 -35 -23 -39 -7 -5 -7 -8 2 -8 7 0 20 13 30 30
14 23 21 27 30 18 9 -9 12 -9 12 0 0 6 -8 16 -19 21 -16 9 -21 6 -32 -22z"/>
<path d="M2913 883 c3 -13 2 -23 -2 -23 -7 0 -5 -140 3 -184 3 -16 9 -32 14
-35 18 -12 43 -73 37 -91 -3 -11 -1 -28 5 -37 8 -15 9 -12 4 11 -5 21 -4 27 5
22 17 -11 13 4 -15 59 -22 42 -27 68 -31 160 -3 61 -10 117 -15 125 -7 11 -8
10 -5 -7z"/>
<path d="M1918 850 c18 -11 37 -20 42 -20 21 0 9 -29 -22 -54 -18 -15 -39 -31
-46 -37 -7 -5 -16 -8 -21 -5 -5 3 -12 -5 -15 -19 -4 -14 -13 -25 -20 -25 -8 0
-16 -3 -19 -7 -2 -5 -3 -3 -1 3 1 6 5 37 10 70 4 32 13 69 21 81 13 20 13 21
-5 16 -22 -5 -30 -25 -38 -93 -3 -25 -11 -51 -16 -58 -8 -9 -7 -11 7 -6 12 5
16 4 12 -3 -4 -6 -4 -18 -1 -27 5 -14 8 -14 28 -1 45 32 154 148 150 159 -5
14 -67 46 -87 46 -7 0 3 -9 21 -20z"/>
<path d="M2153 833 c-1 -27 -28 -57 -83 -95 -19 -14 -20 -16 -5 -11 11 4 35
18 53 31 18 14 35 23 37 20 2 -2 -11 -26 -30 -53 -22 -31 -33 -55 -29 -67 3
-10 1 -18 -5 -18 -6 0 -8 -7 -5 -15 4 -8 2 -15 -4 -15 -5 0 -14 -35 -20 -77
-12 -92 -12 -114 1 -106 6 4 8 -3 5 -15 -4 -12 -3 -22 2 -22 8 0 40 -62 40
-77 0 -4 -7 1 -15 11 -8 11 -15 15 -15 9 0 -6 7 -16 15 -23 8 -7 15 -23 15
-35 0 -26 13 -39 54 -54 24 -10 27 -9 24 6 -2 10 -16 24 -31 31 -15 7 -27 20
-27 28 0 9 -14 48 -31 86 -40 92 -36 130 36 306 30 72 55 141 55 151 0 15 -18
31 -33 31 -1 0 -3 -12 -4 -27z"/>
<path d="M2808 818 c-13 -13 -31 -21 -41 -20 -9 2 -17 0 -16 -5 1 -4 -2 -19
-8 -33 -6 -14 -13 -55 -17 -91 -6 -53 -4 -68 9 -79 24 -20 30 -4 15 40 -7 22
-10 43 -7 47 4 3 7 1 7 -6 0 -7 6 -18 13 -26 12 -11 15 -3 23 49 7 48 7 63 -3
63 -7 0 -17 -14 -23 -30 -5 -17 -13 -28 -16 -25 -10 10 24 76 43 82 10 4 26
18 36 31 22 31 14 32 -15 3z"/>
<path d="M1946 717 c-3 -12 -6 -35 -6 -50 0 -16 -5 -37 -10 -47 -6 -12 -7 -21
0 -25 12 -7 3 -32 -28 -74 -14 -19 -25 -47 -25 -63 0 -15 -3 -28 -7 -28 -6 0
-40 -54 -40 -64 0 -3 4 -6 10 -6 5 0 21 23 36 51 14 28 21 48 15 44 -18 -11
-12 11 9 36 11 13 19 20 18 14 -9 -41 40 -153 63 -146 8 2 19 4 26 4 6 0 9 6
6 14 -3 7 -8 11 -13 8 -16 -10 -52 45 -57 88 -7 60 29 129 104 202 24 23 21
35 -8 35 -13 0 -26 -17 -41 -50 -31 -67 -58 -69 -48 -4 4 25 12 49 17 53 7 4
6 10 -2 18 -10 9 -14 7 -19 -10z"/>
<path d="M506 618 c-12 -39 -16 -69 -7 -64 15 10 31 65 20 71 -5 4 -11 0 -13
-7z"/>
<path d="M621 613 c-1 -7 -7 -10 -13 -8 -7 3 -18 1 -24 -3 -13 -9 -38 -71 -31
-78 3 -3 9 5 13 18 7 22 7 22 15 3 6 -14 7 -9 3 15 -4 26 -3 31 5 20 9 -13 11
-13 11 2 0 11 5 15 14 12 11 -4 13 -12 6 -29 -9 -25 -8 -71 3 -82 11 -10 8
-51 -3 -58 -14 -9 -12 -48 3 -65 10 -12 9 -12 -6 -1 -22 17 -31 9 -22 -20 6
-17 9 -19 16 -8 7 11 9 10 9 -3 0 -10 -4 -18 -9 -18 -13 0 -1 -48 14 -54 18
-6 29 43 21 92 -4 20 -7 82 -8 137 0 55 -5 109 -9 120 -4 11 -8 15 -8 8z"/>
<path d="M2736 548 c-9 -12 -16 -31 -16 -40 0 -10 -11 -22 -23 -27 -20 -8 -23
-15 -19 -40 2 -17 10 -31 17 -31 8 0 15 -10 17 -22 2 -15 11 -24 25 -26 17 -3
27 6 42 36 14 27 17 42 9 53 -8 12 -9 11 -5 -2 5 -15 -29 -59 -45 -59 -3 0
-11 14 -18 31 -10 22 -10 33 -1 42 6 6 11 18 11 26 0 9 7 29 15 45 19 36 13
45 -9 14z"/>
<path d="M472 513 c-6 -10 -8 -23 -4 -29 10 -13 32 -16 32 -4 0 6 -6 10 -12
10 -10 0 -10 2 -1 8 7 5 9 13 4 21 -7 11 -11 10 -19 -6z"/>
<path d="M453 400 c-6 -32 -22 -83 -36 -112 -14 -29 -23 -56 -21 -60 10 -16
54 29 82 85 17 32 32 53 35 47 3 -6 4 -5 3 2 -2 7 3 31 11 52 7 22 11 41 8 44
-2 3 -9 -8 -15 -24 -25 -69 -33 -84 -45 -84 -8 0 -19 -16 -25 -35 -6 -19 -16
-37 -21 -40 -5 -3 0 14 11 40 18 41 38 145 29 145 -3 0 -10 -27 -16 -60z"/>
<path d="M2806 408 c-15 -75 -18 -99 -12 -115 6 -15 8 -15 23 -1 10 11 13 23
8 35 -4 10 -7 39 -6 66 3 54 -4 62 -13 15z"/>
<path d="M2946 369 c-5 -39 -4 -80 2 -102 6 -20 7 -37 3 -37 -17 0 -31 26 -31
58 0 19 -4 31 -10 27 -5 -3 -10 2 -10 12 0 21 -29 66 -30 46 0 -6 5 -15 10
-18 6 -3 10 -24 10 -45 0 -21 6 -45 13 -52 8 -7 19 -23 26 -35 7 -14 17 -20
26 -17 17 7 19 88 6 179 l-7 50 -8 -66z"/>
<path d="M2972 405 c-2 -28 9 -65 19 -65 5 0 9 9 9 21 0 11 -4 18 -9 14 -5 -3
-12 7 -14 22 -2 17 -5 20 -5 8z"/>
<path d="M546 383 c-3 -10 -8 -51 -12 -90 -5 -59 -3 -77 10 -98 9 -14 20 -25
24 -25 4 0 8 43 9 97 0 59 -2 91 -8 82 -7 -12 -9 -12 -10 1 -1 8 -1 23 0 33 1
9 0 17 -3 17 -2 0 -7 -8 -10 -17z"/>
<path d="M1860 352 c0 -7 -4 -10 -10 -7 -5 3 -12 -7 -16 -22 -3 -15 -7 -34
-10 -40 -7 -25 16 -12 31 17 19 37 27 38 43 3 16 -38 79 -110 87 -101 4 3 -10
30 -29 58 -20 29 -36 48 -36 44 0 -5 -9 5 -20 21 -11 17 -20 26 -20 20 0 -5
-5 -3 -10 5 -7 11 -10 11 -10 2z"/>
<path d="M1965 298 c25 -31 61 -69 79 -85 18 -15 35 -35 39 -43 3 -9 6 -3 6
13 1 19 -3 26 -11 21 -7 -4 -8 -3 -4 4 4 7 0 22 -8 34 -11 15 -16 18 -17 8 0
-8 -8 5 -18 29 -10 24 -26 48 -37 54 -18 10 -18 10 -1 -16 10 -15 22 -39 28
-54 8 -21 -3 -13 -46 32 l-57 60 47 -57z"/>
<path d="M1327 313 c-11 -11 -8 -71 4 -79 8 -5 10 1 7 19 -3 15 -1 24 3 21 5
-3 9 1 9 8 0 19 -15 39 -23 31z"/>
</g>
</svg>
